<?xml version="1.0" encoding="utf-8"?>
<!-- Generator: Adobe Illustrator 21.0.0, SVG Export Plug-In . SVG Version: 6.00 Build 0)  -->
<svg version="1.1" id="Layer_1" xmlns="http://www.w3.org/2000/svg" xmlns:xlink="http://www.w3.org/1999/xlink" x="0px" y="0px"
	 viewBox="0 0 2500 468" style="enable-background:new 0 0 2500 468;" xml:space="preserve">
<g>
	<path d="M2362.2,223.4h-177.9c2.2-22.3,17.9-44.6,46.4-44.6h209.8V136H2221c-87.4,0-123.3,66.5-123.3,130.3h244.8
		c8.3,0,28,1.8,28,21.9c0,20.1-17,21.9-46.3,22.7h-255.3V136h-75.2v174.9h-143.4c-43.3,0-48.1-31.9-48.1-48.9V136h-136.8
		l-111.5,74.3L1453.4,136h-293.3c-87.4,0-139.9,60.8-147.3,113.7h60.5c-24.2,16.3-41.3,38.4-50.6,61.1l-170.7,0.1
		c-43.3,0-48.1-31.9-48.1-48.9V136h-75.2v119.3c0,82.2,57.7,98.4,85.7,98.4h601.1l112.3-75.2l101.9,75.2h118.5l-157.8-116.3
		l129.8-87v115c0,74.3,72.6,88.3,92.7,88.3h548.6c27.1,0,101.9-3.5,101.9-63S2408.1,223.4,2362.2,223.4L2362.2,223.4z M1403.1,310.8
		h-282.9c2.2-22.3,26.7-44.6,55.1-44.6h167v-42.8h-228.2c2.2-22.3,26.7-44.6,55.1-44.6h190.6v-24.9l132,97.9L1403.1,310.8
		L1403.1,310.8z M335,449.4c98.7,0,186.3-34.5,240.6-87.6l-48.9,0.2c-46.2,38.9-113.8,63.4-190.4,63.4
		c-142.9,0-254.5-85.2-254.5-190.2C81.7,114,193.2,45,336.2,45c9.1,0,16.4,4.2,10.9,12.1c-29.7,35.7-114.2,150.8-129.7,175.7
		c-30.4,49.1-29.7,109.7,44.8,113.9h313.4c16,0,20.1-7.5,25.9-15.3c20.7-27.8,31.7-61.5,31.6-96.1c-0.1-90.3-63.6-158-157.1-191.3
		l-14.5,21.6c77.7,28.7,129.1,86.6,129.1,169.6c0,14.4-2.1,28.5-6.1,42c-3.5,11.7-10.3,21.6-23.1,21.6H311.2
		c-32,0-19.7-33.1-7.8-49.1c17.2-30.9,111.5-159.3,134.2-183.3c5.8-8.8,22-27-0.4-33.9C405.4,25,370.9,21,334.9,21
		C170.3,21,36.8,105.6,36.8,235.2C36.7,366.1,170.3,449.4,335,449.4L335,449.4z"/>
</g>
</svg>
