<?xml version="1.0" standalone="no"?>
<!DOCTYPE svg PUBLIC "-//W3C//DTD SVG 20010904//EN"
 "http://www.w3.org/TR/2001/REC-SVG-20010904/DTD/svg10.dtd">
<svg version="1.0" xmlns="http://www.w3.org/2000/svg"
 width="256.000000pt" height="256.000000pt" viewBox="0 0 256.000000 256.000000"
 preserveAspectRatio="xMidYMid meet">
<metadata>
Created by potrace 1.11, written by Peter Selinger 2001-2013
</metadata>
<g transform="translate(0.000000,256.000000) scale(0.100000,-0.100000)"
fill="#000000" stroke="none">
<path d="M1138 2205 c-2 -1 -34 -6 -73 -10 -154 -15 -328 -60 -469 -122 -223
-98 -457 -330 -531 -528 -37 -97 -40 -118 -39 -275 0 -122 4 -157 23 -220 37
-118 64 -172 127 -246 208 -247 470 -386 834 -440 88 -13 365 -11 475 3 89 11
197 33 280 56 77 22 271 103 296 124 8 7 19 13 23 13 12 0 178 117 214 151 25
24 31 34 21 40 -7 4 -18 4 -24 0 -5 -4 -46 -7 -89 -6 l-79 1 -76 -51 c-210
-143 -468 -217 -756 -219 -227 -1 -351 22 -550 101 -147 58 -245 120 -340 218
-148 151 -211 349 -181 568 26 187 178 416 355 537 170 115 362 174 633 196
67 5 91 3 107 -8 25 -18 34 -3 -160 -260 -204 -269 -299 -407 -387 -562 -106
-184 -112 -284 -23 -379 36 -39 68 -55 148 -71 118 -24 188 -27 618 -26 688 2
827 5 851 20 30 19 99 124 128 195 52 129 60 358 17 491 -77 241 -250 432
-516 570 -116 60 -119 61 -154 22 -17 -18 -31 -37 -31 -43 0 -5 26 -23 58 -40
223 -116 375 -276 437 -460 38 -112 49 -240 31 -354 -9 -52 -43 -148 -57 -156
-37 -24 -207 -31 -664 -30 -478 2 -507 5 -513 58 -5 39 51 149 159 312 80 121
171 249 189 265 9 9 244 322 294 392 40 57 45 70 36 87 -17 33 -80 59 -185 76
-41 7 -451 16 -457 10z"/>
</g>
</svg>
